<?xml version="1.0" encoding="UTF-8" standalone="no"?>
<!DOCTYPE svg PUBLIC "-//W3C//DTD SVG 1.1//EN"
 "http://www.w3.org/Graphics/SVG/1.1/DTD/svg11.dtd">
<!-- Generated by graphviz version 2.38.0 (20140413.2041)
 -->
<!-- Title: controllers_diagram Pages: 1 -->
<svg width="762pt" height="702pt"
 viewBox="0.00 0.00 761.50 702.00" xmlns="http://www.w3.org/2000/svg" xmlns:xlink="http://www.w3.org/1999/xlink">
<g id="graph0" class="graph" transform="scale(1 1) rotate(0) translate(283.5 438)">
<title>controllers_diagram</title>
<polygon fill="none" stroke="none" points="-283.5,264 -283.5,-438 478,-438 478,264 -283.5,264"/>
<!-- _diagram_info -->
<g id="node1" class="node"><title>_diagram_info</title>
<text text-anchor="start" x="268" y="-323.6" font-family="Times,serif" font-size="13.00">Controllers diagram</text>
<text text-anchor="start" x="268" y="-309.6" font-family="Times,serif" font-size="13.00">Date: Jul 14 2017 &#45; 08:27</text>
<text text-anchor="start" x="268" y="-295.6" font-family="Times,serif" font-size="13.00">Migration version: 20170710064656</text>
<text text-anchor="start" x="268" y="-281.6" font-family="Times,serif" font-size="13.00">Generated by RailRoady 1.5.2</text>
<text text-anchor="start" x="268" y="-267.6" font-family="Times,serif" font-size="13.00">http://railroady.prestonlee.com</text>
</g>
<!-- NopeAdjustmentsController -->
<g id="node2" class="node"><title>NopeAdjustmentsController</title>
<path fill="none" stroke="black" d="M-108,-220.5C-108,-220.5 38,-220.5 38,-220.5 44,-220.5 50,-226.5 50,-232.5 50,-232.5 50,-421.5 50,-421.5 50,-427.5 44,-433.5 38,-433.5 38,-433.5 -108,-433.5 -108,-433.5 -114,-433.5 -120,-427.5 -120,-421.5 -120,-421.5 -120,-232.5 -120,-232.5 -120,-226.5 -114,-220.5 -108,-220.5"/>
<text text-anchor="middle" x="-35" y="-418.3" font-family="Times,serif" font-size="14.00">NopeAdjustmentsController</text>
<polyline fill="none" stroke="black" points="-120,-410.5 50,-410.5 "/>
<text text-anchor="start" x="-112" y="-395.3" font-family="Times,serif" font-size="14.00">correct_user</text>
<text text-anchor="start" x="-112" y="-380.3" font-family="Times,serif" font-size="14.00">create</text>
<text text-anchor="start" x="-112" y="-365.3" font-family="Times,serif" font-size="14.00">destroy</text>
<text text-anchor="start" x="-112" y="-350.3" font-family="Times,serif" font-size="14.00">edit</text>
<text text-anchor="start" x="-112" y="-335.3" font-family="Times,serif" font-size="14.00">index</text>
<text text-anchor="start" x="-112" y="-320.3" font-family="Times,serif" font-size="14.00">new</text>
<text text-anchor="start" x="-112" y="-305.3" font-family="Times,serif" font-size="14.00">show</text>
<text text-anchor="start" x="-112" y="-290.3" font-family="Times,serif" font-size="14.00">update</text>
<polyline fill="none" stroke="black" points="-120,-282.5 50,-282.5 "/>
<polyline fill="none" stroke="black" points="-120,-258.5 50,-258.5 "/>
<text text-anchor="start" x="-112" y="-243.3" font-family="Times,serif" font-size="14.00">_layout</text>
<text text-anchor="start" x="-112" y="-228.3" font-family="Times,serif" font-size="14.00">nope_adjustments_params</text>
</g>
<!-- DopeAdjustmentsController -->
<g id="node3" class="node"><title>DopeAdjustmentsController</title>
<path fill="none" stroke="black" d="M272,259.5C272,259.5 418,259.5 418,259.5 424,259.5 430,253.5 430,247.5 430,247.5 430,58.5 430,58.5 430,52.5 424,46.5 418,46.5 418,46.5 272,46.5 272,46.5 266,46.5 260,52.5 260,58.5 260,58.5 260,247.5 260,247.5 260,253.5 266,259.5 272,259.5"/>
<text text-anchor="middle" x="345" y="61.7" font-family="Times,serif" font-size="14.00">DopeAdjustmentsController</text>
<polyline fill="none" stroke="black" points="260,69.5 430,69.5 "/>
<text text-anchor="start" x="268" y="84.7" font-family="Times,serif" font-size="14.00">correct_user</text>
<text text-anchor="start" x="268" y="99.7" font-family="Times,serif" font-size="14.00">create</text>
<text text-anchor="start" x="268" y="114.7" font-family="Times,serif" font-size="14.00">destroy</text>
<text text-anchor="start" x="268" y="129.7" font-family="Times,serif" font-size="14.00">edit</text>
<text text-anchor="start" x="268" y="144.7" font-family="Times,serif" font-size="14.00">index</text>
<text text-anchor="start" x="268" y="159.7" font-family="Times,serif" font-size="14.00">new</text>
<text text-anchor="start" x="268" y="174.7" font-family="Times,serif" font-size="14.00">show</text>
<text text-anchor="start" x="268" y="189.7" font-family="Times,serif" font-size="14.00">update</text>
<polyline fill="none" stroke="black" points="260,197.5 430,197.5 "/>
<polyline fill="none" stroke="black" points="260,221.5 430,221.5 "/>
<text text-anchor="start" x="268" y="236.7" font-family="Times,serif" font-size="14.00">_layout</text>
<text text-anchor="start" x="268" y="251.7" font-family="Times,serif" font-size="14.00">dope_adjustments_params</text>
</g>
<!-- PayrollsController -->
<g id="node4" class="node"><title>PayrollsController</title>
<path fill="none" stroke="black" d="M-228,240C-228,240 -136,240 -136,240 -130,240 -124,234 -124,228 -124,228 -124,84 -124,84 -124,78 -130,72 -136,72 -136,72 -228,72 -228,72 -234,72 -240,78 -240,84 -240,84 -240,228 -240,228 -240,234 -234,240 -228,240"/>
<text text-anchor="middle" x="-182" y="87.2" font-family="Times,serif" font-size="14.00">PayrollsController</text>
<polyline fill="none" stroke="black" points="-240,95 -124,95 "/>
<text text-anchor="start" x="-232" y="110.2" font-family="Times,serif" font-size="14.00">create</text>
<text text-anchor="start" x="-232" y="125.2" font-family="Times,serif" font-size="14.00">destroy</text>
<text text-anchor="start" x="-232" y="140.2" font-family="Times,serif" font-size="14.00">index</text>
<text text-anchor="start" x="-232" y="155.2" font-family="Times,serif" font-size="14.00">new</text>
<text text-anchor="start" x="-232" y="170.2" font-family="Times,serif" font-size="14.00">show</text>
<polyline fill="none" stroke="black" points="-240,178 -124,178 "/>
<polyline fill="none" stroke="black" points="-240,202 -124,202 "/>
<text text-anchor="start" x="-232" y="217.2" font-family="Times,serif" font-size="14.00">_layout</text>
<text text-anchor="start" x="-232" y="232.2" font-family="Times,serif" font-size="14.00">payroll_params</text>
</g>
<!-- ApplicationController -->
<g id="node5" class="node"><title>ApplicationController</title>
<path fill="none" stroke="black" d="M92,219C92,219 204,219 204,219 210,219 216,213 216,207 216,207 216,137 216,137 216,131 210,125 204,125 204,125 92,125 92,125 86,125 80,131 80,137 80,137 80,207 80,207 80,213 86,219 92,219"/>
<text text-anchor="middle" x="148" y="140.2" font-family="Times,serif" font-size="14.00">ApplicationController</text>
<polyline fill="none" stroke="black" points="80,148 216,148 "/>
<polyline fill="none" stroke="black" points="80,172 216,172 "/>
<polyline fill="none" stroke="black" points="80,196 216,196 "/>
<text text-anchor="start" x="88" y="211.2" font-family="Times,serif" font-size="14.00">_layout</text>
</g>
<!-- PayslipsController -->
<g id="node6" class="node"><title>PayslipsController</title>
<path fill="none" stroke="black" d="M-68,199C-68,199 36,199 36,199 42,199 48,193 48,187 48,187 48,-167 48,-167 48,-173 42,-179 36,-179 36,-179 -68,-179 -68,-179 -74,-179 -80,-173 -80,-167 -80,-167 -80,187 -80,187 -80,193 -74,199 -68,199"/>
<text text-anchor="middle" x="-16" y="-163.8" font-family="Times,serif" font-size="14.00">PayslipsController</text>
<polyline fill="none" stroke="black" points="-80,-156 48,-156 "/>
<text text-anchor="start" x="-72" y="-140.8" font-family="Times,serif" font-size="14.00">create</text>
<text text-anchor="start" x="-72" y="-125.8" font-family="Times,serif" font-size="14.00">destroy</text>
<text text-anchor="start" x="-72" y="-110.8" font-family="Times,serif" font-size="14.00">edit</text>
<text text-anchor="start" x="-72" y="-95.8" font-family="Times,serif" font-size="14.00">index</text>
<text text-anchor="start" x="-72" y="-80.8" font-family="Times,serif" font-size="14.00">new</text>
<text text-anchor="start" x="-72" y="-65.8" font-family="Times,serif" font-size="14.00">pagibig_bracket</text>
<text text-anchor="start" x="-72" y="-50.8" font-family="Times,serif" font-size="14.00">philhealth_bracket</text>
<text text-anchor="start" x="-72" y="-35.8" font-family="Times,serif" font-size="14.00">show</text>
<text text-anchor="start" x="-72" y="-20.8" font-family="Times,serif" font-size="14.00">sss_bracket</text>
<text text-anchor="start" x="-72" y="-5.8" font-family="Times,serif" font-size="14.00">toggle_paid</text>
<text text-anchor="start" x="-72" y="9.2" font-family="Times,serif" font-size="14.00">toggle_pay_all</text>
<text text-anchor="start" x="-72" y="24.2" font-family="Times,serif" font-size="14.00">toggle_unpay_all</text>
<text text-anchor="start" x="-72" y="39.2" font-family="Times,serif" font-size="14.00">update</text>
<text text-anchor="start" x="-72" y="54.2" font-family="Times,serif" font-size="14.00">withholding_bracket</text>
<polyline fill="none" stroke="black" points="-80,62 48,62 "/>
<polyline fill="none" stroke="black" points="-80,86 48,86 "/>
<text text-anchor="start" x="-72" y="101.2" font-family="Times,serif" font-size="14.00">_layout</text>
<text text-anchor="start" x="-72" y="116.2" font-family="Times,serif" font-size="14.00">pagibigBracket</text>
<text text-anchor="start" x="-72" y="131.2" font-family="Times,serif" font-size="14.00">payroll_params</text>
<text text-anchor="start" x="-72" y="146.2" font-family="Times,serif" font-size="14.00">payslip_params</text>
<text text-anchor="start" x="-72" y="161.2" font-family="Times,serif" font-size="14.00">philBracket</text>
<text text-anchor="start" x="-72" y="176.2" font-family="Times,serif" font-size="14.00">sssBracket</text>
<text text-anchor="start" x="-72" y="191.2" font-family="Times,serif" font-size="14.00">withholding_tax</text>
</g>
<!-- ReimbursementsController -->
<g id="node7" class="node"><title>ReimbursementsController</title>
<path fill="none" stroke="black" d="M272,-0.5C272,-0.5 412,-0.5 412,-0.5 418,-0.5 424,-6.5 424,-12.5 424,-12.5 424,-201.5 424,-201.5 424,-207.5 418,-213.5 412,-213.5 412,-213.5 272,-213.5 272,-213.5 266,-213.5 260,-207.5 260,-201.5 260,-201.5 260,-12.5 260,-12.5 260,-6.5 266,-0.5 272,-0.5"/>
<text text-anchor="middle" x="342" y="-198.3" font-family="Times,serif" font-size="14.00">ReimbursementsController</text>
<polyline fill="none" stroke="black" points="260,-190.5 424,-190.5 "/>
<text text-anchor="start" x="268" y="-175.3" font-family="Times,serif" font-size="14.00">correct_user</text>
<text text-anchor="start" x="268" y="-160.3" font-family="Times,serif" font-size="14.00">create</text>
<text text-anchor="start" x="268" y="-145.3" font-family="Times,serif" font-size="14.00">destroy</text>
<text text-anchor="start" x="268" y="-130.3" font-family="Times,serif" font-size="14.00">edit</text>
<text text-anchor="start" x="268" y="-115.3" font-family="Times,serif" font-size="14.00">index</text>
<text text-anchor="start" x="268" y="-100.3" font-family="Times,serif" font-size="14.00">new</text>
<text text-anchor="start" x="268" y="-85.3" font-family="Times,serif" font-size="14.00">show</text>
<text text-anchor="start" x="268" y="-70.3" font-family="Times,serif" font-size="14.00">update</text>
<polyline fill="none" stroke="black" points="260,-62.5 424,-62.5 "/>
<polyline fill="none" stroke="black" points="260,-38.5 424,-38.5 "/>
<text text-anchor="start" x="268" y="-23.3" font-family="Times,serif" font-size="14.00">_layout</text>
<text text-anchor="start" x="268" y="-8.3" font-family="Times,serif" font-size="14.00">reimbursements_params</text>
</g>
<!-- UsersController -->
<g id="node8" class="node"><title>UsersController</title>
<path fill="none" stroke="black" d="M92.5,79C92.5,79 219.5,79 219.5,79 225.5,79 231.5,73 231.5,67 231.5,67 231.5,-257 231.5,-257 231.5,-263 225.5,-269 219.5,-269 219.5,-269 92.5,-269 92.5,-269 86.5,-269 80.5,-263 80.5,-257 80.5,-257 80.5,67 80.5,67 80.5,73 86.5,79 92.5,79"/>
<text text-anchor="middle" x="156" y="-253.8" font-family="Times,serif" font-size="14.00">UsersController</text>
<polyline fill="none" stroke="black" points="80.5,-246 231.5,-246 "/>
<text text-anchor="start" x="88.5" y="-230.8" font-family="Times,serif" font-size="14.00">add_users_csv</text>
<text text-anchor="start" x="88.5" y="-215.8" font-family="Times,serif" font-size="14.00">compute_sss</text>
<text text-anchor="start" x="88.5" y="-200.8" font-family="Times,serif" font-size="14.00">create</text>
<text text-anchor="start" x="88.5" y="-185.8" font-family="Times,serif" font-size="14.00">create_csv</text>
<text text-anchor="start" x="88.5" y="-170.8" font-family="Times,serif" font-size="14.00">destroy</text>
<text text-anchor="start" x="88.5" y="-155.8" font-family="Times,serif" font-size="14.00">edit</text>
<text text-anchor="start" x="88.5" y="-140.8" font-family="Times,serif" font-size="14.00">hired_status</text>
<text text-anchor="start" x="88.5" y="-125.8" font-family="Times,serif" font-size="14.00">index</text>
<text text-anchor="start" x="88.5" y="-110.8" font-family="Times,serif" font-size="14.00">new</text>
<text text-anchor="start" x="88.5" y="-95.8" font-family="Times,serif" font-size="14.00">pagibigBracket</text>
<text text-anchor="start" x="88.5" y="-80.8" font-family="Times,serif" font-size="14.00">philBracket</text>
<text text-anchor="start" x="88.5" y="-65.8" font-family="Times,serif" font-size="14.00">show</text>
<text text-anchor="start" x="88.5" y="-50.8" font-family="Times,serif" font-size="14.00">update</text>
<polyline fill="none" stroke="black" points="80.5,-43 231.5,-43 "/>
<polyline fill="none" stroke="black" points="80.5,-19 231.5,-19 "/>
<text text-anchor="start" x="88.5" y="-3.8" font-family="Times,serif" font-size="14.00">_layout</text>
<text text-anchor="start" x="88.5" y="11.2" font-family="Times,serif" font-size="14.00">correct_user</text>
<text text-anchor="start" x="88.5" y="26.2" font-family="Times,serif" font-size="14.00">logged_in_user</text>
<text text-anchor="start" x="88.5" y="41.2" font-family="Times,serif" font-size="14.00">reimbursements_params</text>
<text text-anchor="start" x="88.5" y="56.2" font-family="Times,serif" font-size="14.00">user_params</text>
<text text-anchor="start" x="88.5" y="71.2" font-family="Times,serif" font-size="14.00">verify_is_admin</text>
</g>
<!-- SessionsController -->
<g id="node9" class="node"><title>SessionsController</title>
<path fill="none" stroke="black" d="M-267.5,-280.5C-267.5,-280.5 -172.5,-280.5 -172.5,-280.5 -166.5,-280.5 -160.5,-286.5 -160.5,-292.5 -160.5,-292.5 -160.5,-391.5 -160.5,-391.5 -160.5,-397.5 -166.5,-403.5 -172.5,-403.5 -172.5,-403.5 -267.5,-403.5 -267.5,-403.5 -273.5,-403.5 -279.5,-397.5 -279.5,-391.5 -279.5,-391.5 -279.5,-292.5 -279.5,-292.5 -279.5,-286.5 -273.5,-280.5 -267.5,-280.5"/>
<text text-anchor="middle" x="-220" y="-388.3" font-family="Times,serif" font-size="14.00">SessionsController</text>
<polyline fill="none" stroke="black" points="-279.5,-380.5 -160.5,-380.5 "/>
<text text-anchor="start" x="-271.5" y="-365.3" font-family="Times,serif" font-size="14.00">create</text>
<text text-anchor="start" x="-271.5" y="-350.3" font-family="Times,serif" font-size="14.00">destroy</text>
<text text-anchor="start" x="-271.5" y="-335.3" font-family="Times,serif" font-size="14.00">new</text>
<polyline fill="none" stroke="black" points="-279.5,-327.5 -160.5,-327.5 "/>
<polyline fill="none" stroke="black" points="-279.5,-303.5 -160.5,-303.5 "/>
<text text-anchor="start" x="-271.5" y="-288.3" font-family="Times,serif" font-size="14.00">_layout</text>
</g>
<!-- StaticPagesController -->
<g id="node10" class="node"><title>StaticPagesController</title>
<path fill="none" stroke="black" d="M92,-300.5C92,-300.5 202,-300.5 202,-300.5 208,-300.5 214,-306.5 214,-312.5 214,-312.5 214,-381.5 214,-381.5 214,-387.5 208,-393.5 202,-393.5 202,-393.5 92,-393.5 92,-393.5 86,-393.5 80,-387.5 80,-381.5 80,-381.5 80,-312.5 80,-312.5 80,-306.5 86,-300.5 92,-300.5"/>
<text text-anchor="middle" x="147" y="-378.3" font-family="Times,serif" font-size="14.00">StaticPagesController</text>
<polyline fill="none" stroke="black" points="80,-370.5 214,-370.5 "/>
<text text-anchor="start" x="88" y="-355.3" font-family="Times,serif" font-size="14.00">home</text>
<polyline fill="none" stroke="black" points="80,-347.5 214,-347.5 "/>
<polyline fill="none" stroke="black" points="80,-323.5 214,-323.5 "/>
<text text-anchor="start" x="88" y="-308.3" font-family="Times,serif" font-size="14.00">_layout</text>
</g>
<!-- AllowancesController -->
<g id="node11" class="node"><title>AllowancesController</title>
<path fill="none" stroke="black" d="M-248,39.5C-248,39.5 -136,39.5 -136,39.5 -130,39.5 -124,33.5 -124,27.5 -124,27.5 -124,-161.5 -124,-161.5 -124,-167.5 -130,-173.5 -136,-173.5 -136,-173.5 -248,-173.5 -248,-173.5 -254,-173.5 -260,-167.5 -260,-161.5 -260,-161.5 -260,27.5 -260,27.5 -260,33.5 -254,39.5 -248,39.5"/>
<text text-anchor="middle" x="-192" y="-158.3" font-family="Times,serif" font-size="14.00">AllowancesController</text>
<polyline fill="none" stroke="black" points="-260,-150.5 -124,-150.5 "/>
<text text-anchor="start" x="-252" y="-135.3" font-family="Times,serif" font-size="14.00">correct_user</text>
<text text-anchor="start" x="-252" y="-120.3" font-family="Times,serif" font-size="14.00">create</text>
<text text-anchor="start" x="-252" y="-105.3" font-family="Times,serif" font-size="14.00">destroy</text>
<text text-anchor="start" x="-252" y="-90.3" font-family="Times,serif" font-size="14.00">edit</text>
<text text-anchor="start" x="-252" y="-75.3" font-family="Times,serif" font-size="14.00">index</text>
<text text-anchor="start" x="-252" y="-60.3" font-family="Times,serif" font-size="14.00">new</text>
<text text-anchor="start" x="-252" y="-45.3" font-family="Times,serif" font-size="14.00">show</text>
<text text-anchor="start" x="-252" y="-30.3" font-family="Times,serif" font-size="14.00">update</text>
<polyline fill="none" stroke="black" points="-260,-22.5 -124,-22.5 "/>
<polyline fill="none" stroke="black" points="-260,1.5 -124,1.5 "/>
<text text-anchor="start" x="-252" y="16.7" font-family="Times,serif" font-size="14.00">_layout</text>
<text text-anchor="start" x="-252" y="31.7" font-family="Times,serif" font-size="14.00">allowances_params</text>
</g>
</g>
</svg>
