<?xml version="1.0" encoding="UTF-8" standalone="no"?>
<!DOCTYPE svg PUBLIC "-//W3C//DTD SVG 1.1//EN"
 "http://www.w3.org/Graphics/SVG/1.1/DTD/svg11.dtd">
<!-- Generated by graphviz version 2.38.0 (20140413.2041)
 -->
<!-- Title: models_diagram Pages: 1 -->
<svg width="1038pt" height="663pt"
 viewBox="0.00 0.00 1037.50 663.00" xmlns="http://www.w3.org/2000/svg" xmlns:xlink="http://www.w3.org/1999/xlink">
<g id="graph0" class="graph" transform="scale(1 1) rotate(0) translate(4 659)">
<title>models_diagram</title>
<polygon fill="none" stroke="none" points="-4,4 -4,-659 1033.5,-659 1033.5,4 -4,4"/>
<!-- _diagram_info -->
<g id="node1" class="node"><title>_diagram_info</title>
<text text-anchor="start" x="8" y="-491.1" font-family="Times,serif" font-size="13.00">Models diagram</text>
<text text-anchor="start" x="8" y="-477.1" font-family="Times,serif" font-size="13.00">Date: Jul 14 2017 &#45; 08:26</text>
<text text-anchor="start" x="8" y="-463.1" font-family="Times,serif" font-size="13.00">Migration version: 20170710064656</text>
<text text-anchor="start" x="8" y="-449.1" font-family="Times,serif" font-size="13.00">Generated by RailRoady 1.5.2</text>
<text text-anchor="start" x="8" y="-435.1" font-family="Times,serif" font-size="13.00">http://railroady.prestonlee.com</text>
</g>
<!-- Payroll -->
<g id="node2" class="node"><title>Payroll</title>
<path fill="none" stroke="black" d="M244.5,-413.5C244.5,-413.5 351.5,-413.5 351.5,-413.5 357.5,-413.5 363.5,-419.5 363.5,-425.5 363.5,-425.5 363.5,-507.5 363.5,-507.5 363.5,-513.5 357.5,-519.5 351.5,-519.5 351.5,-519.5 244.5,-519.5 244.5,-519.5 238.5,-519.5 232.5,-513.5 232.5,-507.5 232.5,-507.5 232.5,-425.5 232.5,-425.5 232.5,-419.5 238.5,-413.5 244.5,-413.5"/>
<text text-anchor="middle" x="298" y="-504.3" font-family="Times,serif" font-size="14.00">Payroll</text>
<polyline fill="none" stroke="black" points="232.5,-496.5 363.5,-496.5 "/>
<text text-anchor="start" x="240.5" y="-481.3" font-family="Times,serif" font-size="14.00">id :INTEGER</text>
<text text-anchor="start" x="240.5" y="-466.3" font-family="Times,serif" font-size="14.00">start_period :date</text>
<text text-anchor="start" x="240.5" y="-451.3" font-family="Times,serif" font-size="14.00">end_period :date</text>
<text text-anchor="start" x="240.5" y="-436.3" font-family="Times,serif" font-size="14.00">created_at :datetime</text>
<text text-anchor="start" x="240.5" y="-421.3" font-family="Times,serif" font-size="14.00">updated_at :datetime</text>
</g>
<!-- Payslip -->
<g id="node4" class="node"><title>Payslip</title>
<path fill="none" stroke="black" d="M223,-0.5C223,-0.5 373,-0.5 373,-0.5 379,-0.5 385,-6.5 385,-12.5 385,-12.5 385,-229.5 385,-229.5 385,-235.5 379,-241.5 373,-241.5 373,-241.5 223,-241.5 223,-241.5 217,-241.5 211,-235.5 211,-229.5 211,-229.5 211,-12.5 211,-12.5 211,-6.5 217,-0.5 223,-0.5"/>
<text text-anchor="middle" x="298" y="-226.3" font-family="Times,serif" font-size="14.00">Payslip</text>
<polyline fill="none" stroke="black" points="211,-218.5 385,-218.5 "/>
<text text-anchor="start" x="219" y="-203.3" font-family="Times,serif" font-size="14.00">id :INTEGER</text>
<text text-anchor="start" x="219" y="-188.3" font-family="Times,serif" font-size="14.00">employee_id :integer</text>
<text text-anchor="start" x="219" y="-173.3" font-family="Times,serif" font-size="14.00">payroll_id :integer</text>
<text text-anchor="start" x="219" y="-158.3" font-family="Times,serif" font-size="14.00">base_salary :decimal(10,2)</text>
<text text-anchor="start" x="219" y="-143.3" font-family="Times,serif" font-size="14.00">sss :decimal(6,2)</text>
<text text-anchor="start" x="219" y="-128.3" font-family="Times,serif" font-size="14.00">pagibig :decimal(6,2)</text>
<text text-anchor="start" x="219" y="-113.3" font-family="Times,serif" font-size="14.00">philhealth :decimal(6,2)</text>
<text text-anchor="start" x="219" y="-98.3" font-family="Times,serif" font-size="14.00">created_at :datetime</text>
<text text-anchor="start" x="219" y="-83.3" font-family="Times,serif" font-size="14.00">updated_at :datetime</text>
<text text-anchor="start" x="219" y="-68.3" font-family="Times,serif" font-size="14.00">paid :boolean</text>
<text text-anchor="start" x="219" y="-53.3" font-family="Times,serif" font-size="14.00">avatar_file_name :varchar</text>
<text text-anchor="start" x="219" y="-38.3" font-family="Times,serif" font-size="14.00">avatar_content_type :varchar</text>
<text text-anchor="start" x="219" y="-23.3" font-family="Times,serif" font-size="14.00">avatar_file_size :integer</text>
<text text-anchor="start" x="219" y="-8.3" font-family="Times,serif" font-size="14.00">avatar_updated_at :datetime</text>
</g>
<!-- Payroll&#45;&gt;Payslip -->
<g id="edge1" class="edge"><title>Payroll&#45;&gt;Payslip</title>
<path fill="none" stroke="#be4cb7" d="M298,-405.124C298,-362.754 298,-304.484 298,-251.818"/>
<ellipse fill="none" stroke="#be4cb7" cx="298" cy="-409.33" rx="4" ry="4"/>
<polygon fill="#be4cb7" stroke="#be4cb7" points="298,-251.71 302.5,-241.71 298,-246.71 298,-241.71 298,-241.71 298,-241.71 298,-246.71 293.5,-241.71 298,-251.71 298,-251.71"/>
</g>
<!-- DopeAdjustment -->
<g id="node3" class="node"><title>DopeAdjustment</title>
<path fill="none" stroke="black" d="M415.5,-60.5C415.5,-60.5 522.5,-60.5 522.5,-60.5 528.5,-60.5 534.5,-66.5 534.5,-72.5 534.5,-72.5 534.5,-169.5 534.5,-169.5 534.5,-175.5 528.5,-181.5 522.5,-181.5 522.5,-181.5 415.5,-181.5 415.5,-181.5 409.5,-181.5 403.5,-175.5 403.5,-169.5 403.5,-169.5 403.5,-72.5 403.5,-72.5 403.5,-66.5 409.5,-60.5 415.5,-60.5"/>
<text text-anchor="middle" x="469" y="-166.3" font-family="Times,serif" font-size="14.00">DopeAdjustment</text>
<polyline fill="none" stroke="black" points="403.5,-158.5 534.5,-158.5 "/>
<text text-anchor="start" x="411.5" y="-143.3" font-family="Times,serif" font-size="14.00">id :INTEGER</text>
<text text-anchor="start" x="411.5" y="-128.3" font-family="Times,serif" font-size="14.00">description :varchar</text>
<text text-anchor="start" x="411.5" y="-113.3" font-family="Times,serif" font-size="14.00">amount :decimal</text>
<text text-anchor="start" x="411.5" y="-98.3" font-family="Times,serif" font-size="14.00">user_id :integer</text>
<text text-anchor="start" x="411.5" y="-83.3" font-family="Times,serif" font-size="14.00">created_at :datetime</text>
<text text-anchor="start" x="411.5" y="-68.3" font-family="Times,serif" font-size="14.00">updated_at :datetime</text>
</g>
<!-- ApplicationRecord -->
<g id="node5" class="node"><title>ApplicationRecord</title>
<ellipse fill="none" stroke="black" cx="793" cy="-466.5" rx="77.1866" ry="18"/>
<text text-anchor="middle" x="793" y="-462.8" font-family="Times,serif" font-size="14.00">ApplicationRecord</text>
</g>
<!-- Allowance -->
<g id="node6" class="node"><title>Allowance</title>
<path fill="none" stroke="black" d="M564.5,-60.5C564.5,-60.5 675.5,-60.5 675.5,-60.5 681.5,-60.5 687.5,-66.5 687.5,-72.5 687.5,-72.5 687.5,-169.5 687.5,-169.5 687.5,-175.5 681.5,-181.5 675.5,-181.5 675.5,-181.5 564.5,-181.5 564.5,-181.5 558.5,-181.5 552.5,-175.5 552.5,-169.5 552.5,-169.5 552.5,-72.5 552.5,-72.5 552.5,-66.5 558.5,-60.5 564.5,-60.5"/>
<text text-anchor="middle" x="620" y="-166.3" font-family="Times,serif" font-size="14.00">Allowance</text>
<polyline fill="none" stroke="black" points="552.5,-158.5 687.5,-158.5 "/>
<text text-anchor="start" x="560.5" y="-143.3" font-family="Times,serif" font-size="14.00">id :INTEGER</text>
<text text-anchor="start" x="560.5" y="-128.3" font-family="Times,serif" font-size="14.00">description :varchar</text>
<text text-anchor="start" x="560.5" y="-113.3" font-family="Times,serif" font-size="14.00">amount :decimal(9,2)</text>
<text text-anchor="start" x="560.5" y="-98.3" font-family="Times,serif" font-size="14.00">user_id :integer</text>
<text text-anchor="start" x="560.5" y="-83.3" font-family="Times,serif" font-size="14.00">created_at :datetime</text>
<text text-anchor="start" x="560.5" y="-68.3" font-family="Times,serif" font-size="14.00">updated_at :datetime</text>
</g>
<!-- User -->
<g id="node7" class="node"><title>User</title>
<path fill="none" stroke="black" d="M554.5,-278.5C554.5,-278.5 685.5,-278.5 685.5,-278.5 691.5,-278.5 697.5,-284.5 697.5,-290.5 697.5,-290.5 697.5,-642.5 697.5,-642.5 697.5,-648.5 691.5,-654.5 685.5,-654.5 685.5,-654.5 554.5,-654.5 554.5,-654.5 548.5,-654.5 542.5,-648.5 542.5,-642.5 542.5,-642.5 542.5,-290.5 542.5,-290.5 542.5,-284.5 548.5,-278.5 554.5,-278.5"/>
<text text-anchor="middle" x="620" y="-639.3" font-family="Times,serif" font-size="14.00">User</text>
<polyline fill="none" stroke="black" points="542.5,-631.5 697.5,-631.5 "/>
<text text-anchor="start" x="550.5" y="-616.3" font-family="Times,serif" font-size="14.00">id :INTEGER</text>
<text text-anchor="start" x="550.5" y="-601.3" font-family="Times,serif" font-size="14.00">username :varchar</text>
<text text-anchor="start" x="550.5" y="-586.3" font-family="Times,serif" font-size="14.00">birthday :date</text>
<text text-anchor="start" x="550.5" y="-571.3" font-family="Times,serif" font-size="14.00">date_hired :date</text>
<text text-anchor="start" x="550.5" y="-556.3" font-family="Times,serif" font-size="14.00">created_at :datetime</text>
<text text-anchor="start" x="550.5" y="-541.3" font-family="Times,serif" font-size="14.00">updated_at :datetime</text>
<text text-anchor="start" x="550.5" y="-526.3" font-family="Times,serif" font-size="14.00">password_digest :varchar</text>
<text text-anchor="start" x="550.5" y="-511.3" font-family="Times,serif" font-size="14.00">admin :boolean</text>
<text text-anchor="start" x="550.5" y="-496.3" font-family="Times,serif" font-size="14.00">name :varchar</text>
<text text-anchor="start" x="550.5" y="-481.3" font-family="Times,serif" font-size="14.00">contact_no :varchar</text>
<text text-anchor="start" x="550.5" y="-466.3" font-family="Times,serif" font-size="14.00">account_no :varchar</text>
<text text-anchor="start" x="550.5" y="-451.3" font-family="Times,serif" font-size="14.00">bank :varchar</text>
<text text-anchor="start" x="550.5" y="-436.3" font-family="Times,serif" font-size="14.00">base_salary :int</text>
<text text-anchor="start" x="550.5" y="-421.3" font-family="Times,serif" font-size="14.00">no_of_dependents :int</text>
<text text-anchor="start" x="550.5" y="-406.3" font-family="Times,serif" font-size="14.00">address :varchar</text>
<text text-anchor="start" x="550.5" y="-391.3" font-family="Times,serif" font-size="14.00">sss_no :varchar</text>
<text text-anchor="start" x="550.5" y="-376.3" font-family="Times,serif" font-size="14.00">tin_no :varchar</text>
<text text-anchor="start" x="550.5" y="-361.3" font-family="Times,serif" font-size="14.00">pagibig_no :varchar</text>
<text text-anchor="start" x="550.5" y="-346.3" font-family="Times,serif" font-size="14.00">philhealth_no :varchar</text>
<text text-anchor="start" x="550.5" y="-331.3" font-family="Times,serif" font-size="14.00">position :varchar</text>
<text text-anchor="start" x="550.5" y="-316.3" font-family="Times,serif" font-size="14.00">job :varchar</text>
<text text-anchor="start" x="550.5" y="-301.3" font-family="Times,serif" font-size="14.00">status :varchar</text>
<text text-anchor="start" x="550.5" y="-286.3" font-family="Times,serif" font-size="14.00">profileimg :varchar</text>
</g>
<!-- User&#45;&gt;DopeAdjustment -->
<g id="edge4" class="edge"><title>User&#45;&gt;DopeAdjustment</title>
<path fill="none" stroke="#d4108c" d="M539.015,-281.273C524.909,-249.184 511.059,-217.678 499.45,-191.269"/>
<ellipse fill="none" stroke="#d4108c" cx="540.789" cy="-285.309" rx="4.00002" ry="4.00002"/>
<polygon fill="#d4108c" stroke="#d4108c" points="499.302,-190.933 499.398,-179.967 497.29,-186.356 495.278,-181.778 495.278,-181.778 495.278,-181.778 497.29,-186.356 491.159,-183.589 499.302,-190.933 499.302,-190.933"/>
</g>
<!-- User&#45;&gt;Payslip -->
<g id="edge6" class="edge"><title>User&#45;&gt;Payslip</title>
<path fill="none" stroke="#4ca9a1" d="M536.614,-386.906C493.237,-344.978 440.016,-291.872 395,-242 393.99,-240.881 392.978,-239.754 391.964,-238.619"/>
<ellipse fill="none" stroke="#4ca9a1" cx="539.516" cy="-389.707" rx="4.00002" ry="4.00002"/>
<polygon fill="#4ca9a1" stroke="#4ca9a1" points="391.873,-238.516 388.623,-228.043 388.562,-234.769 385.251,-231.022 385.251,-231.022 385.251,-231.022 388.562,-234.769 381.879,-234.002 391.873,-238.516 391.873,-238.516"/>
</g>
<!-- User&#45;&gt;Allowance -->
<g id="edge3" class="edge"><title>User&#45;&gt;Allowance</title>
<path fill="none" stroke="#29f908" d="M620,-270.225C620,-242.215 620,-215.057 620,-191.805"/>
<ellipse fill="none" stroke="#29f908" cx="620" cy="-274.421" rx="4" ry="4"/>
<polygon fill="#29f908" stroke="#29f908" points="620,-191.748 624.5,-181.748 620,-186.748 620,-181.748 620,-181.748 620,-181.748 620,-186.748 615.5,-181.748 620,-191.748 620,-191.748"/>
</g>
<!-- Reimbursement -->
<g id="node8" class="node"><title>Reimbursement</title>
<path fill="none" stroke="black" d="M718,-15.5C718,-15.5 868,-15.5 868,-15.5 874,-15.5 880,-21.5 880,-27.5 880,-27.5 880,-214.5 880,-214.5 880,-220.5 874,-226.5 868,-226.5 868,-226.5 718,-226.5 718,-226.5 712,-226.5 706,-220.5 706,-214.5 706,-214.5 706,-27.5 706,-27.5 706,-21.5 712,-15.5 718,-15.5"/>
<text text-anchor="middle" x="793" y="-211.3" font-family="Times,serif" font-size="14.00">Reimbursement</text>
<polyline fill="none" stroke="black" points="706,-203.5 880,-203.5 "/>
<text text-anchor="start" x="714" y="-188.3" font-family="Times,serif" font-size="14.00">id :INTEGER</text>
<text text-anchor="start" x="714" y="-173.3" font-family="Times,serif" font-size="14.00">category :varchar</text>
<text text-anchor="start" x="714" y="-158.3" font-family="Times,serif" font-size="14.00">description :varchar</text>
<text text-anchor="start" x="714" y="-143.3" font-family="Times,serif" font-size="14.00">amount :decimal(9,2)</text>
<text text-anchor="start" x="714" y="-128.3" font-family="Times,serif" font-size="14.00">price :decimal(9,2)</text>
<text text-anchor="start" x="714" y="-113.3" font-family="Times,serif" font-size="14.00">user_id :integer</text>
<text text-anchor="start" x="714" y="-98.3" font-family="Times,serif" font-size="14.00">created_at :datetime</text>
<text text-anchor="start" x="714" y="-83.3" font-family="Times,serif" font-size="14.00">updated_at :datetime</text>
<text text-anchor="start" x="714" y="-68.3" font-family="Times,serif" font-size="14.00">avatar_file_name :varchar</text>
<text text-anchor="start" x="714" y="-53.3" font-family="Times,serif" font-size="14.00">avatar_content_type :varchar</text>
<text text-anchor="start" x="714" y="-38.3" font-family="Times,serif" font-size="14.00">avatar_file_size :integer</text>
<text text-anchor="start" x="714" y="-23.3" font-family="Times,serif" font-size="14.00">avatar_updated_at :datetime</text>
</g>
<!-- User&#45;&gt;Reimbursement -->
<g id="edge2" class="edge"><title>User&#45;&gt;Reimbursement</title>
<path fill="none" stroke="#532267" d="M701.345,-289.251C703.235,-285.46 705.122,-281.706 707,-278 714.005,-264.18 721.562,-249.793 729.187,-235.593"/>
<ellipse fill="none" stroke="#532267" cx="699.485" cy="-292.999" rx="4.00002" ry="4.00002"/>
<polygon fill="#532267" stroke="#532267" points="729.193,-235.583 737.9,-228.917 731.566,-231.182 733.939,-226.781 733.939,-226.781 733.939,-226.781 731.566,-231.182 729.979,-224.645 729.193,-235.583 729.193,-235.583"/>
</g>
<!-- NopeAdjustment -->
<g id="node9" class="node"><title>NopeAdjustment</title>
<path fill="none" stroke="black" d="M910.5,-60.5C910.5,-60.5 1017.5,-60.5 1017.5,-60.5 1023.5,-60.5 1029.5,-66.5 1029.5,-72.5 1029.5,-72.5 1029.5,-169.5 1029.5,-169.5 1029.5,-175.5 1023.5,-181.5 1017.5,-181.5 1017.5,-181.5 910.5,-181.5 910.5,-181.5 904.5,-181.5 898.5,-175.5 898.5,-169.5 898.5,-169.5 898.5,-72.5 898.5,-72.5 898.5,-66.5 904.5,-60.5 910.5,-60.5"/>
<text text-anchor="middle" x="964" y="-166.3" font-family="Times,serif" font-size="14.00">NopeAdjustment</text>
<polyline fill="none" stroke="black" points="898.5,-158.5 1029.5,-158.5 "/>
<text text-anchor="start" x="906.5" y="-143.3" font-family="Times,serif" font-size="14.00">id :INTEGER</text>
<text text-anchor="start" x="906.5" y="-128.3" font-family="Times,serif" font-size="14.00">description :varchar</text>
<text text-anchor="start" x="906.5" y="-113.3" font-family="Times,serif" font-size="14.00">amount :decimal</text>
<text text-anchor="start" x="906.5" y="-98.3" font-family="Times,serif" font-size="14.00">user_id :integer</text>
<text text-anchor="start" x="906.5" y="-83.3" font-family="Times,serif" font-size="14.00">created_at :datetime</text>
<text text-anchor="start" x="906.5" y="-68.3" font-family="Times,serif" font-size="14.00">updated_at :datetime</text>
</g>
<!-- User&#45;&gt;NopeAdjustment -->
<g id="edge5" class="edge"><title>User&#45;&gt;NopeAdjustment</title>
<path fill="none" stroke="#db3822" d="M703.694,-280.681C704.783,-279.77 705.884,-278.876 707,-278 771.844,-227.066 821.121,-288.812 889,-242 907.678,-229.119 922.641,-209.913 934.138,-190.624"/>
<ellipse fill="none" stroke="#db3822" cx="700.601" cy="-283.423" rx="4.00002" ry="4.00002"/>
<polygon fill="#db3822" stroke="#db3822" points="934.228,-190.466 943.088,-184.005 936.703,-186.122 939.178,-181.777 939.178,-181.777 939.178,-181.777 936.703,-186.122 935.268,-179.55 934.228,-190.466 934.228,-190.466"/>
</g>
</g>
</svg>
