<?xml version="1.0" encoding="UTF-8" standalone="no"?>
<!DOCTYPE svg PUBLIC "-//W3C//DTD SVG 1.1//EN"
 "http://www.w3.org/Graphics/SVG/1.1/DTD/svg11.dtd">
<!-- Generated by graphviz version 2.38.0 (20140413.2041)
 -->
<!-- Title: models_diagram Pages: 1 -->
<svg width="902pt" height="158pt"
 viewBox="0.00 0.00 902.49 158.00" xmlns="http://www.w3.org/2000/svg" xmlns:xlink="http://www.w3.org/1999/xlink">
<g id="graph0" class="graph" transform="scale(1 1) rotate(0) translate(4 154)">
<title>models_diagram</title>
<polygon fill="none" stroke="none" points="-4,4 -4,-154 898.494,-154 898.494,4 -4,4"/>
<!-- _diagram_info -->
<g id="node1" class="node"><title>_diagram_info</title>
<text text-anchor="start" x="8" y="-135.6" font-family="Times,serif" font-size="13.00">Models diagram</text>
<text text-anchor="start" x="8" y="-121.6" font-family="Times,serif" font-size="13.00">Date: Jul 14 2017 &#45; 08:27</text>
<text text-anchor="start" x="8" y="-107.6" font-family="Times,serif" font-size="13.00">Migration version: 20170710064656</text>
<text text-anchor="start" x="8" y="-93.6" font-family="Times,serif" font-size="13.00">Generated by RailRoady 1.5.2</text>
<text text-anchor="start" x="8" y="-79.6" font-family="Times,serif" font-size="13.00">http://railroady.prestonlee.com</text>
</g>
<!-- Payroll -->
<g id="node2" class="node"><title>Payroll</title>
<ellipse fill="none" stroke="black" cx="268" cy="-111" rx="36.2938" ry="18"/>
<text text-anchor="middle" x="268" y="-107.3" font-family="Times,serif" font-size="14.00">Payroll</text>
</g>
<!-- Payslip -->
<g id="node4" class="node"><title>Payslip</title>
<ellipse fill="none" stroke="black" cx="268" cy="-18" rx="36.2938" ry="18"/>
<text text-anchor="middle" x="268" y="-14.3" font-family="Times,serif" font-size="14.00">Payslip</text>
</g>
<!-- Payroll&#45;&gt;Payslip -->
<g id="edge1" class="edge"><title>Payroll&#45;&gt;Payslip</title>
<path fill="none" stroke="#cb4627" d="M268,-84.7285C268,-72.7246 268,-58.3622 268,-46.1291"/>
<ellipse fill="none" stroke="#cb4627" cx="268" cy="-88.8836" rx="4" ry="4"/>
<polygon fill="#cb4627" stroke="#cb4627" points="268,-46.0397 272.5,-36.0396 268,-41.0397 268,-36.0397 268,-36.0397 268,-36.0397 268,-41.0397 263.5,-36.0397 268,-46.0397 268,-46.0397"/>
</g>
<!-- DopeAdjustment -->
<g id="node3" class="node"><title>DopeAdjustment</title>
<ellipse fill="none" stroke="black" cx="394" cy="-18" rx="71.4873" ry="18"/>
<text text-anchor="middle" x="394" y="-14.3" font-family="Times,serif" font-size="14.00">DopeAdjustment</text>
</g>
<!-- ApplicationRecord -->
<g id="node5" class="node"><title>ApplicationRecord</title>
<ellipse fill="none" stroke="black" cx="655" cy="-111" rx="77.1866" ry="18"/>
<text text-anchor="middle" x="655" y="-107.3" font-family="Times,serif" font-size="14.00">ApplicationRecord</text>
</g>
<!-- Allowance -->
<g id="node6" class="node"><title>Allowance</title>
<ellipse fill="none" stroke="black" cx="532" cy="-18" rx="48.9926" ry="18"/>
<text text-anchor="middle" x="532" y="-14.3" font-family="Times,serif" font-size="14.00">Allowance</text>
</g>
<!-- User -->
<g id="node7" class="node"><title>User</title>
<ellipse fill="none" stroke="black" cx="532" cy="-111" rx="27.0966" ry="18"/>
<text text-anchor="middle" x="532" y="-107.3" font-family="Times,serif" font-size="14.00">User</text>
</g>
<!-- User&#45;&gt;DopeAdjustment -->
<g id="edge4" class="edge"><title>User&#45;&gt;DopeAdjustment</title>
<path fill="none" stroke="#bb6d38" d="M506.66,-93.2906C484.243,-78.5081 451.39,-56.8443 426.94,-40.721"/>
<ellipse fill="none" stroke="#bb6d38" cx="510.049" cy="-95.5253" rx="4.00002" ry="4.00002"/>
<polygon fill="#bb6d38" stroke="#bb6d38" points="426.695,-40.5597 420.824,-31.2979 422.521,-37.8071 418.347,-35.0546 418.347,-35.0546 418.347,-35.0546 422.521,-37.8071 415.869,-38.8114 426.695,-40.5597 426.695,-40.5597"/>
</g>
<!-- User&#45;&gt;Payslip -->
<g id="edge6" class="edge"><title>User&#45;&gt;Payslip</title>
<path fill="none" stroke="#8db49f" d="M500.289,-99.5312C457.775,-85.4287 380.004,-59.3943 314,-36 311.292,-35.04 308.498,-34.0377 305.688,-33.0209"/>
<ellipse fill="none" stroke="#8db49f" cx="504.26" cy="-100.847" rx="4.00001" ry="4.00001"/>
<polygon fill="#8db49f" stroke="#8db49f" points="305.57,-32.9777 297.719,-25.3213 300.873,-31.2631 296.176,-29.5484 296.176,-29.5484 296.176,-29.5484 300.873,-31.2631 294.633,-33.7755 305.57,-32.9777 305.57,-32.9777"/>
</g>
<!-- User&#45;&gt;Allowance -->
<g id="edge3" class="edge"><title>User&#45;&gt;Allowance</title>
<path fill="none" stroke="#7340e9" d="M532,-84.7285C532,-72.7246 532,-58.3622 532,-46.1291"/>
<ellipse fill="none" stroke="#7340e9" cx="532" cy="-88.8836" rx="4" ry="4"/>
<polygon fill="#7340e9" stroke="#7340e9" points="532,-46.0397 536.5,-36.0396 532,-41.0397 532,-36.0397 532,-36.0397 532,-36.0397 532,-41.0397 527.5,-36.0397 532,-46.0397 532,-46.0397"/>
</g>
<!-- Reimbursement -->
<g id="node8" class="node"><title>Reimbursement</title>
<ellipse fill="none" stroke="black" cx="666" cy="-18" rx="67.6881" ry="18"/>
<text text-anchor="middle" x="666" y="-14.3" font-family="Times,serif" font-size="14.00">Reimbursement</text>
</g>
<!-- User&#45;&gt;Reimbursement -->
<g id="edge2" class="edge"><title>User&#45;&gt;Reimbursement</title>
<path fill="none" stroke="#d0ba51" d="M550.528,-88.739C556.139,-82.9385 562.537,-76.9069 569,-72 585.92,-59.1535 606.345,-47.5066 624.08,-38.4241"/>
<ellipse fill="none" stroke="#d0ba51" cx="547.515" cy="-91.9581" rx="4.00002" ry="4.00002"/>
<polygon fill="#d0ba51" stroke="#d0ba51" points="624.136,-38.396 635.093,-37.9385 628.606,-36.1557 633.076,-33.9155 633.076,-33.9155 633.076,-33.9155 628.606,-36.1557 631.06,-29.8924 624.136,-38.396 624.136,-38.396"/>
</g>
<!-- NopeAdjustment -->
<g id="node9" class="node"><title>NopeAdjustment</title>
<ellipse fill="none" stroke="black" cx="823" cy="-18" rx="71.4873" ry="18"/>
<text text-anchor="middle" x="823" y="-14.3" font-family="Times,serif" font-size="14.00">NopeAdjustment</text>
</g>
<!-- User&#45;&gt;NopeAdjustment -->
<g id="edge5" class="edge"><title>User&#45;&gt;NopeAdjustment</title>
<path fill="none" stroke="#f6ca32" d="M548.766,-88.4071C554.554,-82.2562 561.491,-76.1158 569,-72 638.252,-34.044 665.71,-52.2075 743,-36 748.609,-34.8239 754.437,-33.5961 760.277,-32.3621"/>
<ellipse fill="none" stroke="#f6ca32" cx="546.033" cy="-91.4924" rx="4.00002" ry="4.00002"/>
<polygon fill="#f6ca32" stroke="#f6ca32" points="760.295,-32.3583 771.01,-34.6901 765.187,-31.323 770.079,-30.2877 770.079,-30.2877 770.079,-30.2877 765.187,-31.323 769.147,-25.8852 760.295,-32.3583 760.295,-32.3583"/>
</g>
</g>
</svg>
